<?xml version="1.0" encoding="UTF-8" standalone="no"?>
<svg
   xmlns:dc="http://purl.org/dc/elements/1.1/"
   xmlns:cc="http://creativecommons.org/ns#"
   xmlns:rdf="http://www.w3.org/1999/02/22-rdf-syntax-ns#"
   xmlns:svg="http://www.w3.org/2000/svg"
   xmlns="http://www.w3.org/2000/svg"
   id="svg5977"
   version="1.1"
   viewBox="0 0 234.25977 169.35293"
   height="169.35292mm"
   width="234.25977mm">
  <defs
     id="defs5971">
    <filter
       height="1.1388365"
       y="-0.069418237"
       width="1.0984408"
       x="-0.049220383"
       id="filter6938"
       style="color-interpolation-filters:sRGB">
      <feGaussianBlur
         id="feGaussianBlur6940"
         stdDeviation="4.3531442" />
    </filter>
  </defs>
  <metadata
     id="metadata5974">
    <rdf:RDF>
      <cc:Work
         rdf:about="">
        <dc:format>image/svg+xml</dc:format>
        <dc:type
           rdf:resource="http://purl.org/dc/dcmitype/StillImage" />
        <dc:title></dc:title>
      </cc:Work>
    </rdf:RDF>
  </metadata>
  <g
     transform="translate(66.591322,-24.95906)"
     id="layer1">
    <g
       id="g7289">
      <rect
         transform="rotate(-15.3,10.90756,-6.5564655)"
         y="64.183876"
         x="-77.387596"
         height="103.5821"
         width="191.72319"
         id="rect6928"
         style="opacity:1;fill:#000000;fill-opacity:1;stroke:none;stroke-width:3.20700002;stroke-linecap:round;stroke-linejoin:round;stroke-miterlimit:4;stroke-dasharray:3.207, 9.621;stroke-dashoffset:0.32070002;stroke-opacity:1;filter:url(#filter6938)" />
      <rect
         style="opacity:1;fill:#ffffff;fill-opacity:1;stroke:#000000;stroke-width:3.20678425;stroke-linecap:round;stroke-linejoin:round;stroke-miterlimit:4;stroke-dasharray:3.20678429, 9.62035286;stroke-dashoffset:0.32067844;stroke-opacity:1"
         id="rect6522"
         width="191.72319"
         height="103.5821"
         x="-77.387596"
         y="64.183876"
         transform="rotate(-15.3)" />
      <g
         aria-label="COUPON"
         style="font-style:normal;font-weight:normal;font-size:10.58333302px;line-height:1.25;font-family:sans-serif;letter-spacing:0px;word-spacing:0px;fill:#000000;fill-opacity:1;stroke:none;stroke-width:0.26458332"
         id="text6526"
         transform="rotate(-15.3,48.421894,106.98968)">
        <path
           style="font-weight:bold;font-size:25.39999962px;stroke-width:0.26458332"
           d="M 4.1536687,89.016173 C -7.3006682,96.758314 -19.027727,77.171135 -5.709295,71.829625 c 4.0890179,-3.742396 13.7911565,3.116747 8.5452147,3.776514 -10.8295243,-6.675904 -13.1313067,15.180637 -1.2991455,10.90476 4.4159707,-3.063738 2.0180825,0.08964 2.6168945,2.505274 z"
           id="path6538" />
        <path
           style="font-weight:bold;font-size:25.39999962px;stroke-width:0.26458332"
           d="m 16.580816,74.641857 c -12.6160161,2.841986 3.366842,21.252692 4.60127,6.151562 0.142497,-2.755816 -1.266211,-6.354059 -4.60127,-6.151562 z m 0,-3.460254 C 33.152784,70.728859 25.175212,98.452694 10.976507,88.955711 3.6517212,84.144079 6.9714377,70.1269 16.580816,71.181603 Z"
           id="path6540" />
        <path
           style="font-weight:bold;font-size:25.39999962px;stroke-width:0.26458332"
           d="m 29.702494,71.516466 c 4.585772,-1.188558 5.504485,1.289942 4.774902,5.416739 -1.027479,4.416736 1.277286,14.411762 6.222876,7.652231 0.384295,-4.340929 0.103575,-8.713726 0.189136,-13.06897 4.585772,-1.188558 5.504485,1.289942 4.774902,5.416739 0.443454,5.714517 0.05758,14.377035 -7.987109,13.459628 -8.192294,0.894554 -8.372494,-7.95899 -7.974707,-13.734682 0,-1.713895 0,-3.42779 0,-5.141685 z"
           id="path6542" />
        <path
           style="font-weight:bold;font-size:25.39999962px;stroke-width:0.26458332"
           d="m 50.339995,71.516466 c 5.169531,0.459053 13.237929,-1.928575 15.123883,4.672583 2.976089,9.09074 -10.28252,4.785061 -10.348981,9.586398 2.072677,4.148984 -3.491744,5.936529 -4.774902,3.17437 0,-5.811117 0,-11.622234 0,-17.433351 z m 4.774902,3.460254 c -2.145216,4.959645 3.617858,7.757945 5.543848,2.579687 0.0729,-3.135905 -3.475254,-2.528461 -5.543848,-2.579687 z"
           id="path6544" />
        <path
           style="font-weight:bold;font-size:25.39999962px;stroke-width:0.26458332"
           d="m 77.401905,74.641857 c -12.616016,2.841986 3.366843,21.252692 4.601269,6.151562 0.142497,-2.755816 -1.266209,-6.354059 -4.601269,-6.151562 z m 0,-3.460254 C 93.973874,70.728859 85.996301,98.452694 71.797596,88.955711 64.47281,84.144079 67.792527,70.126899 77.401905,71.181603 Z"
           id="path6546" />
        <path
           style="font-weight:bold;font-size:25.39999962px;stroke-width:0.26458332"
           d="m 90.523585,71.516466 c 3.831712,-0.713106 6.620155,0.307878 7.616887,4.306989 1.39066,2.243743 3.486358,7.322 4.450588,7.851337 0,-4.052775 0,-8.105551 0,-12.158326 4.60063,-1.286102 5.14378,1.485282 4.52686,5.416739 0,4.366653 0,8.733307 0,13.09996 -3.83171,0.713105 -6.62016,-0.307876 -7.616891,-4.306988 -1.39066,-2.243744 -3.486358,-7.322001 -4.450589,-7.851338 0,4.052775 0,8.105551 0,12.158326 -4.600635,1.286104 -5.143777,-1.485286 -4.526855,-5.416739 0,-4.366653 0,-8.733307 0,-13.09996 z"
           id="path6548" />
      </g>
      <g
         aria-label="50% off anything you buy 
with this coupon while 
supplies last and you can 
find it somewhere!"
         transform="matrix(1.1279814,-0.30858077,0.22564267,0.82481069,-26.515496,16.569224)"
         style="font-style:normal;font-weight:normal;font-size:10.8651371px;line-height:1.25;font-family:sans-serif;letter-spacing:0px;word-spacing:0px;fill:#4d4d4d;fill-opacity:1;stroke:none;stroke-width:0.27162841"
         id="text6530">
        <path
           style="font-style:italic;fill:#4d4d4d;stroke-width:0.27162841"
           d="m -22.704053,121.51563 c -4.304663,0.20802 -3.013709,3.99908 -0.313291,4.82652 0.782021,3.86406 -8.811328,2.82722 -2.194903,1.53043 0.0816,-2.48193 -5.002687,-7.1172 1.15476,-6.35694 h 0.676717 z"
           id="path6551" />
        <path
           style="font-style:italic;fill:#4d4d4d;stroke-width:0.27162841"
           d="m -17.950556,121.37239 c 8.122961,2.96741 -6.392534,12.76264 -3.170098,2.88952 0.454953,-1.40018 1.532879,-2.91342 3.170098,-2.88952 z m -0.06366,0.84884 c -6.136524,1.01434 1.427841,9.98422 1.207471,2.56631 -0.01296,-0.92845 0.07488,-2.41566 -1.207471,-2.56631 z"
           id="path6553" />
        <path
           style="font-style:italic;fill:#4d4d4d;stroke-width:0.27162841"
           d="m -12.629397,125.68555 c -6.582448,-5.98259 8.2852105,-4.59069 0,0 z m 1.368752,-2.51999 c -3.302962,-3.54619 -0.556768,4.9291 0,0 z m 4.562509,3.90466 c -3.2829686,-3.57473 -0.5540068,4.94165 0,0 z m -1.3581421,2.51999 c -6.5561909,-5.96628 8.25263341,-4.61537 0,0 z m 1.8037825,-8.21782 c -1.2714744,1.41052 -6.7130834,9.03546 -5.8219874,6.40367 1.796871,-2.22579 3.126022,-5.10564 5.8219874,-6.40367 z"
           id="path6555" />
        <path
           style="font-style:italic;fill:#4d4d4d;stroke-width:0.27162841"
           d="m 1.3711377,129.59021 c -7.4621732,-2.09659 5.6623843,-9.74425 2.9799259,-2.19319 -0.3634298,1.30499 -1.694026,2.09459 -2.9799259,2.19319 z M 0.12440568,127.1551 c 3.68721472,6.19585 4.19658782,-7.51298 0.5757044,-1.27672 -0.21906866,0.41305 -0.38736813,0.84948 -0.5757044,1.27672 z"
           id="path6557" />
        <path
           style="font-style:italic;fill:#4d4d4d;stroke-width:0.27162841"
           d="m 14.103719,121.1814 c -2.161253,1.41151 -3.982492,11.65586 -4.00551,4.16142 -1.6944025,-4.6552 -4.3323836,8.21143 -3.9798392,1.15986 -0.5347316,-2.27129 4.1966272,-7.62155 2.9273755,-2.83304 1.7354907,-0.45331 3.1140097,-3.07665 5.0579737,-2.48824 z"
           id="path6559" />
        <path
           style="font-style:italic;fill:#4d4d4d;stroke-width:0.27162841"
           d="m 22.40112,126.04631 c 2.342509,5.03247 -8.669737,3.19174 -3.57308,-0.20956 5.562918,0.51722 -3.641533,-3.146 1.874575,-2.41551 1.345591,0.002 2.31221,1.36567 1.698505,2.62507 z m -1.055743,0.40319 c -5.708481,-1.836 -1.529949,5.70173 0,0 z"
           id="path6561" />
        <path
           style="font-style:italic;fill:#4d4d4d;stroke-width:0.27162841"
           d="m 29.282019,125.85001 c -0.112705,4.4145 -2.290522,1.2877 -1.161848,-1.40058 -3.378621,0.24231 -4.437908,7.58245 -3.965633,0.61732 0.654665,-2.54652 5.500602,-2.09512 5.127481,0.78326 z"
           id="path6563" />
        <path
           style="font-style:italic;fill:#4d4d4d;stroke-width:0.27162841"
           d="m 32.820616,129.9881 c -3.856965,3.96155 0.634065,-5.73257 -1.046771,-5.63727 0.766673,3.48157 2.703599,3.63641 3.418057,0.2032 2.207178,-2.10439 -1.904038,5.24942 -2.371286,5.43407 z"
           id="path6565" />
        <path
           style="font-style:italic;fill:#4d4d4d;stroke-width:0.27162841"
           d="m 41.149848,123.49448 c -4.409325,0.75164 -1.582616,5.51659 -1.738497,5.58645 -3.450831,-0.15273 -2.297994,-10.35843 1.738497,-5.58645 z"
           id="path6567" />
        <path
           style="font-style:italic;fill:#4d4d4d;stroke-width:0.27162841"
           d="m 46.874209,125.85001 c -0.112705,4.4145 -2.290522,1.2877 -1.161848,-1.40058 -3.327281,0.13347 -4.467568,7.60468 -3.932717,0.70697 0.762561,-4.61101 1.922078,-1.77971 1.897663,-1.31654 1.378196,-1.18251 4.16114,0.008 3.196902,2.01015 z"
           id="path6569" />
        <path
           style="font-style:italic;fill:#4d4d4d;stroke-width:0.27162841"
           d="m 49.707205,121.1814 c 2.999473,-0.0819 -1.63451,2.76097 0,0 z m -0.44564,2.31308 c 2.743258,2.6147 -2.507825,8.19335 -0.397313,2.03193 0.132437,-0.67731 0.264875,-1.35462 0.397313,-2.03193 z"
           id="path6571" />
        <path
           style="font-style:italic;fill:#4d4d4d;stroke-width:0.27162841"
           d="m 56.784395,125.85001 c -0.112704,4.4145 -2.290522,1.2877 -1.161848,-1.40058 -3.378622,0.24231 -4.437906,7.58245 -3.965631,0.61732 0.654665,-2.54652 5.500602,-2.09512 5.127479,0.78326 z"
           id="path6573" />
        <path
           style="font-style:italic;fill:#4d4d4d;stroke-width:0.27162841"
           d="m 64.105635,123.49448 c 2.302775,3.46243 -5.539854,9.07852 -4.048146,7.20891 4.311102,-2.48958 -5.020077,-1.30445 -1.614695,-5.51642 1.353567,-1.63014 3.722655,-1.68124 5.662841,-1.69249 z m -1.469552,2.18046 c -3.663782,-5.76134 -3.72938,7.30893 -0.515401,1.21415 0.198364,-0.39315 0.346232,-0.80828 0.515401,-1.21415 z"
           id="path6575" />
        <path
           style="font-style:italic;fill:#4d4d4d;stroke-width:0.27162841"
           d="m 70.678832,129.9881 c -3.856966,3.96155 0.634064,-5.73257 -1.046772,-5.63727 0.766674,3.48157 2.7036,3.63641 3.418058,0.2032 2.207177,-2.10439 -1.904038,5.24942 -2.371286,5.43407 z"
           id="path6577" />
        <path
           style="font-style:italic;fill:#4d4d4d;stroke-width:0.27162841"
           d="m 77.172449,129.59021 c -7.462172,-2.09659 5.662385,-9.74425 2.979926,-2.19319 -0.36343,1.30499 -1.694026,2.09459 -2.979926,2.19319 z m -1.246732,-2.43511 c 3.687216,6.19585 4.196588,-7.51298 0.575704,-1.27672 -0.219068,0.41305 -0.387368,0.84948 -0.575704,1.27672 z"
           id="path6579" />
        <path
           style="font-style:italic;fill:#4d4d4d;stroke-width:0.27162841"
           d="m 81.7827,127.08083 c 0.119741,-4.42936 2.288389,-1.26458 1.156543,1.4165 3.375702,-0.25238 4.442956,-7.60132 3.9718,-0.63394 -0.65363,2.54487 -5.537967,2.12391 -5.128343,-0.78256 z"
           id="path6581" />
        <path
           style="font-style:italic;fill:#4d4d4d;stroke-width:0.27162841"
           d="m 96.791233,125.80757 c -3.572497,-6.09499 -4.05035,7.35501 -0.549739,1.2456 0.209902,-0.40316 0.369566,-0.829 0.549739,-1.2456 z m -3.034599,-1.41119 c 7.532816,-3.98965 0.354648,10.87327 -1.653639,2.99972 -0.207192,-2.11241 3.125544,-9.61385 1.653639,-2.99972 z"
           id="path6583" />
        <path
           style="font-style:italic;fill:#4d4d4d;stroke-width:0.27162841"
           d="m 99.035355,127.08083 c 0.119749,-4.42936 2.288375,-1.26458 1.156545,1.4165 3.3757,-0.25237 4.44297,-7.60132 3.97181,-0.63394 -0.65364,2.54487 -5.537973,2.12391 -5.128355,-0.78256 z"
           id="path6585" />
        <path
           style="font-style:italic;fill:#4d4d4d;stroke-width:0.27162841"
           d="m 107.90041,129.9881 c -3.85696,3.96155 0.63408,-5.73257 -1.04677,-5.63727 0.76667,3.48157 2.7036,3.63641 3.41806,0.20321 2.20717,-2.10439 -1.90404,5.24941 -2.37129,5.43406 z"
           id="path6587" />
        <path
           style="font-style:italic;fill:#4d4d4d;stroke-width:0.27162841"
           d="m -28.09418,137.07591 c 1.167404,5.01083 2.260784,2.21515 4.156347,0.31913 0.93453,2.75933 0.983308,5.23727 2.378797,1.00212 2.281808,-1.93443 -2.29365,8.4984 -2.67587,2.50546 0.658984,-6.17621 -3.506421,6.54383 -3.639563,0.1285 -0.105455,-1.3167 -0.08679,-2.64031 -0.219711,-3.95521 z"
           id="path6589" />
        <path
           style="font-style:italic;fill:#4d4d4d;stroke-width:0.27162841"
           d="m -18.136239,134.76282 c 2.999473,-0.0819 -1.63451,2.76097 0,0 z m -0.44564,2.31309 c 2.743257,2.61471 -2.507829,8.19334 -0.397312,2.03192 0.132437,-0.67731 0.264875,-1.35461 0.397312,-2.03192 z"
           id="path6591" />
        <path
           style="font-style:italic;fill:#4d4d4d;stroke-width:0.27162841"
           d="m -12.517986,137.07591 c -4.40933,0.75162 -1.582618,5.51658 -1.738496,5.58645 -3.450823,-0.15274 -2.297981,-10.35845 1.738496,-5.58645 z"
           id="path6593" />
        <path
           style="font-style:italic;fill:#4d4d4d;stroke-width:0.27162841"
           d="m -6.7936304,139.43143 c -0.1127057,4.4145 -2.2905193,1.2877 -1.1618488,-1.40058 -3.3272828,0.13346 -4.4675678,7.60469 -3.9327178,0.70697 0.762562,-4.61102 1.9220784,-1.7797 1.8976626,-1.31654 1.3781967,-1.18251 4.161143,0.008 3.196904,2.01015 z"
           id="path6595" />
        <path
           style="font-style:italic;fill:#4d4d4d;stroke-width:0.27162841"
           d="m 2.1032628,137.07591 c -4.4093286,0.75163 -1.58261926,5.51657 -1.73848893,5.58645 -3.45082537,-0.15273 -2.29799257,-10.35844 1.73848893,-5.58645 z"
           id="path6597" />
        <path
           style="font-style:italic;fill:#4d4d4d;stroke-width:0.27162841"
           d="m 7.8276197,139.43143 c -0.1127056,4.4145 -2.2905194,1.2877 -1.1618487,-1.40058 -3.3272828,0.13346 -4.4675684,7.60469 -3.9327164,0.70697 0.7625631,-4.61102 1.922078,-1.7797 1.8976624,-1.31654 1.3781965,-1.18251 4.1611435,0.008 3.1969027,2.01015 z"
           id="path6599" />
        <path
           style="font-style:italic;fill:#4d4d4d;stroke-width:0.27162841"
           d="m 10.66062,134.76282 c 2.999473,-0.0819 -1.6345102,2.76097 0,0 z m -0.44564,2.31309 c 2.743255,2.61471 -2.5078285,8.19334 -0.3973123,2.03192 0.1324374,-0.67731 0.2648753,-1.35461 0.3973123,-2.03192 z"
           id="path6601" />
        <path
           style="font-style:italic;fill:#4d4d4d;stroke-width:0.27162841"
           d="m 17.117101,137.25098 c -5.508056,-0.10017 2.479072,7.45171 -4.207036,5.44753 -0.247126,-1.7438 4.059505,0.24605 0.84561,-2.82375 -1.766515,-2.75262 1.333784,-3.46058 3.361426,-2.62378 z"
           id="path6603" />
        <path
           style="font-style:italic;fill:#4d4d4d;stroke-width:0.27162841"
           d="m 26.634704,137.30403 c -3.574162,-1.16364 -5.245865,6.27033 -0.993575,5.08383 -6.864129,4.16915 -4.342508,-8.57227 0.993575,-5.08383 z"
           id="path6605" />
        <path
           style="font-style:italic;fill:#4d4d4d;stroke-width:0.27162841"
           d="m 29.552588,143.17163 c -7.462176,-2.0966 5.662399,-9.74423 2.979926,-2.19318 -0.363428,1.30499 -1.69403,2.09458 -2.979926,2.19318 z m -1.246732,-2.43511 c 3.687214,6.19585 4.19659,-7.51299 0.575706,-1.27672 -0.219069,0.41305 -0.387369,0.84948 -0.575706,1.27672 z"
           id="path6607" />
        <path
           style="font-style:italic;fill:#4d4d4d;stroke-width:0.27162841"
           d="m 34.162846,140.66225 c 0.119742,-4.42935 2.288385,-1.26458 1.156543,1.4165 3.375703,-0.25237 4.442957,-7.60131 3.971797,-0.63393 -0.653634,2.54487 -5.537971,2.1239 -5.12834,-0.78257 z"
           id="path6609" />
        <path
           style="font-style:italic;fill:#4d4d4d;stroke-width:0.27162841"
           d="m 45.72297,139.35716 c -3.629796,-6.00649 -3.978135,7.42294 -0.546256,1.25494 0.208563,-0.40652 0.367309,-0.83521 0.546256,-1.25494 z m -3.023988,-1.37936 c 6.96064,-2.54805 1.454384,7.19778 -1.757069,6.70729 -0.658214,-0.75597 0.52384,-9.60163 1.757069,-6.70729 z"
           id="path6611" />
        <path
           style="font-style:italic;fill:#4d4d4d;stroke-width:0.27162841"
           d="m 49.988382,143.17163 c -7.462174,-2.0966 5.6624,-9.74423 2.979927,-2.19318 -0.363428,1.30499 -1.694031,2.09458 -2.979927,2.19318 z m -1.246732,-2.43511 c 3.687211,6.19585 4.196594,-7.51298 0.575706,-1.27672 -0.219069,0.41305 -0.387369,0.84948 -0.575706,1.27672 z"
           id="path6613" />
        <path
           style="font-style:italic;fill:#4d4d4d;stroke-width:0.27162841"
           d="m 59.925104,139.43143 c -0.112704,4.4145 -2.290521,1.2877 -1.161848,-1.40058 -3.37862,0.24231 -4.437907,7.58245 -3.96563,0.61732 0.654666,-2.54651 5.50061,-2.09513 5.127478,0.78326 z"
           id="path6615" />
        <path
           style="font-style:italic;fill:#4d4d4d;stroke-width:0.27162841"
           d="m 65.15077,137.07591 c 1.167402,5.01083 2.260785,2.21515 4.156347,0.31913 0.934529,2.75933 0.983307,5.23727 2.378796,1.00212 2.281808,-1.93443 -2.293649,8.4984 -2.675869,2.50546 0.658984,-6.17621 -3.506422,6.54383 -3.639564,0.1285 -0.105454,-1.3167 -0.08679,-2.64031 -0.21971,-3.95521 z"
           id="path6617" />
        <path
           style="font-style:italic;fill:#4d4d4d;stroke-width:0.27162841"
           d="m 79.172526,139.43143 c -0.112705,4.4145 -2.290521,1.2877 -1.161848,-1.40058 -3.327283,0.13346 -4.467567,7.60469 -3.932717,0.70697 0.762561,-4.61101 1.922078,-1.77971 1.897663,-1.31654 1.378195,-1.18251 4.161142,0.008 3.196902,2.01015 z"
           id="path6619" />
        <path
           style="font-style:italic;fill:#4d4d4d;stroke-width:0.27162841"
           d="m 82.005522,134.76282 c 2.999473,-0.0819 -1.63451,2.76097 0,0 z m -0.44564,2.31309 c 2.743255,2.61471 -2.507828,8.19334 -0.397312,2.03192 0.132437,-0.67731 0.264875,-1.35461 0.397312,-2.03192 z"
           id="path6621" />
        <path
           style="font-style:italic;fill:#4d4d4d;stroke-width:0.27162841"
           d="m 85.018904,134.76282 c 2.653688,2.14549 -2.577498,11.53321 -0.909008,4.40018 0.325727,-1.46136 0.761431,-2.90441 0.909008,-4.40018 z"
           id="path6623" />
        <path
           style="font-style:italic;fill:#4d4d4d;stroke-width:0.27162841"
           d="m 91.268476,139.51632 c -1.538434,-4.50353 -4.868148,2.18831 0,0 z m 0.848839,0.76395 c -3.346778,-1.98951 -4.968505,2.85076 -0.785174,2.46694 -8.24481,4.64299 -2.456045,-12.05536 0.659565,-3.20149 z"
           id="path6625" />
        <path
           style="font-style:italic;fill:#4d4d4d;stroke-width:0.27162841"
           d="m -23.584723,150.8324 c -5.508058,-0.10017 2.479074,7.45171 -4.207036,5.44753 -0.247127,-1.7438 4.059503,0.24605 0.845607,-2.82375 -1.766508,-2.75262 1.333789,-3.46058 3.361429,-2.62378 z"
           id="path6627" />
        <path
           style="font-style:italic;fill:#4d4d4d;stroke-width:0.27162841"
           d="m -22.624474,154.24367 c 0.119741,-4.42935 2.288386,-1.26458 1.156543,1.4165 3.375704,-0.25237 4.442955,-7.60131 3.971797,-0.63393 -0.653633,2.54487 -5.537973,2.1239 -5.12834,-0.78257 z"
           id="path6629" />
        <path
           style="font-style:italic;fill:#4d4d4d;stroke-width:0.27162841"
           d="m -11.064351,152.93858 c -3.629796,-6.00649 -3.978135,7.42294 -0.546256,1.25494 0.208563,-0.40652 0.367309,-0.83521 0.546256,-1.25494 z m -3.023988,-1.37936 c 6.9606399,-2.54805 1.454384,7.19778 -1.757069,6.70729 -0.658214,-0.75597 0.52384,-9.60163 1.757069,-6.70729 z"
           id="path6631" />
        <path
           style="font-style:italic;fill:#4d4d4d;stroke-width:0.27162841"
           d="m -4.1675344,152.93858 c -3.6297972,-6.0065 -3.9781347,7.42294 -0.5462557,1.25494 0.2085621,-0.40652 0.3673089,-0.83521 0.5462557,-1.25494 z m -3.0239884,-1.37936 c 6.96064044,-2.54805 1.454385,7.19778 -1.7570681,6.70729 -0.658214,-0.75597 0.5238397,-9.60163 1.7570681,-6.70729 z"
           id="path6633" />
        <path
           style="font-style:italic;fill:#4d4d4d;stroke-width:0.27162841"
           d="m -0.67137878,148.34424 c 2.65368728,2.14549 -2.57749762,11.53321 -0.90900712,4.40018 0.3257262,-1.46136 0.7614302,-2.90441 0.90900712,-4.40018 z"
           id="path6635" />
        <path
           style="font-style:italic;fill:#4d4d4d;stroke-width:0.27162841"
           d="m 2.3419994,148.34424 c 2.9994722,-0.0819 -1.63451038,2.76097 0,0 z m -0.4456404,2.31309 c 2.7432572,2.61471 -2.50782847,8.19334 -0.3973122,2.03192 0.1324374,-0.67731 0.2648748,-1.35461 0.3973122,-2.03192 z"
           id="path6637" />
        <path
           style="font-style:italic;fill:#4d4d4d;stroke-width:0.27162841"
           d="m 8.5915737,153.09774 c -1.5384416,-4.50352 -4.8681402,2.1883 0,0 z m 0.8488388,0.76395 c -3.3467774,-1.98951 -4.9685078,2.85076 -0.7851755,2.46694 -8.24481358,4.64299 -2.4560397,-12.05536 0.6595667,-3.20149 z"
           id="path6639" />
        <path
           style="font-style:italic;fill:#4d4d4d;stroke-width:0.27162841"
           d="m 15.483087,150.8324 c -5.5080577,-0.10017 2.479074,7.45171 -4.207035,5.44753 -0.24713,-1.7438 4.059502,0.24605 0.845604,-2.82374 -1.766504,-2.75262 1.33379,-3.4606 3.361431,-2.62379 z"
           id="path6641" />
        <path
           style="font-style:italic;fill:#4d4d4d;stroke-width:0.27162841"
           d="m 21.164999,148.34424 c 2.653687,2.14549 -2.577498,11.53321 -0.909006,4.40018 0.325726,-1.46136 0.761429,-2.90441 0.909006,-4.40018 z"
           id="path6643" />
        <path
           style="font-style:italic;fill:#4d4d4d;stroke-width:0.27162841"
           d="m 28.024678,153.20915 c 2.342511,5.03247 -8.669743,3.19174 -3.57308,-0.20956 5.562921,0.51723 -3.641537,-3.14601 1.874575,-2.41552 1.345592,0.002 2.312205,1.36568 1.698505,2.62508 z m -1.055743,0.4032 c -5.708471,-1.83601 -1.529958,5.70172 0,0 z"
           id="path6645" />
        <path
           style="font-style:italic;fill:#4d4d4d;stroke-width:0.27162841"
           d="m 34.284863,150.8324 c -5.508056,-0.10017 2.479075,7.45171 -4.207035,5.44753 -0.247129,-1.7438 4.059503,0.24605 0.845605,-2.82374 -1.766505,-2.75262 1.333789,-3.4606 3.36143,-2.62379 z"
           id="path6647" />
        <path
           style="font-style:italic;fill:#4d4d4d;stroke-width:0.27162841"
           d="m 39.112635,150.65733 c -4.409318,0.75164 -1.582618,5.51658 -1.738495,5.58644 -3.450822,-0.15273 -2.297981,-10.35842 1.738495,-5.58644 z"
           id="path6649" />
        <path
           style="font-style:italic;fill:#4d4d4d;stroke-width:0.27162841"
           d="m 48.0785,153.20915 c 2.342512,5.03247 -8.669743,3.19174 -3.573081,-0.20956 5.562921,0.51722 -3.641558,-3.14601 1.874564,-2.41552 1.345591,0.002 2.312201,1.36567 1.698517,2.62508 z m -1.055743,0.4032 c -5.708471,-1.83601 -1.529958,5.70172 0,0 z"
           id="path6651" />
        <path
           style="font-style:italic;fill:#4d4d4d;stroke-width:0.27162841"
           d="m 54.959398,153.01285 c -0.112705,4.4145 -2.290518,1.2877 -1.161847,-1.40058 -3.37862,0.24231 -4.437907,7.58245 -3.96563,0.61732 0.654666,-2.54651 5.50061,-2.09513 5.127477,0.78326 z"
           id="path6653" />
        <path
           style="font-style:italic;fill:#4d4d4d;stroke-width:0.27162841"
           d="m 60.344217,155.70792 c -6.902215,2.63672 -1.505756,-7.0792 1.44528,-6.60846 1.355713,-2.94484 -0.156036,9.8338 -1.44528,6.60846 z m -3.029294,-1.40059 c 3.596295,6.06162 4.005926,-7.39478 0.546263,-1.25235 -0.208655,0.40559 -0.367289,0.83349 -0.546263,1.25235 z"
           id="path6655" />
        <path
           style="font-style:italic;fill:#4d4d4d;stroke-width:0.27162841"
           d="m 68.853827,157.15094 c -3.856963,3.96156 0.634061,-5.73258 -1.04677,-5.63725 0.761299,3.45568 2.693017,3.65493 3.41187,0.22945 2.472491,-2.42605 -2.232075,5.52312 -2.3651,5.4078 z"
           id="path6657" />
        <path
           style="font-style:italic;fill:#4d4d4d;stroke-width:0.27162841"
           d="m 75.347445,156.75305 c -7.462177,-2.0966 5.662402,-9.74424 2.979927,-2.19318 -0.363427,1.30499 -1.694031,2.09458 -2.979927,2.19318 z m -1.246732,-2.43511 c 3.687214,6.19585 4.19659,-7.51299 0.575706,-1.27672 -0.219069,0.41305 -0.387369,0.84948 -0.575706,1.27672 z"
           id="path6659" />
        <path
           style="font-style:italic;fill:#4d4d4d;stroke-width:0.27162841"
           d="m 79.957703,154.24367 c 0.119742,-4.42935 2.288386,-1.26458 1.156543,1.4165 3.375704,-0.25237 4.442956,-7.60131 3.971798,-0.63393 -0.653634,2.54486 -5.537975,2.1239 -5.128341,-0.78257 z"
           id="path6661" />
        <path
           style="font-style:italic;fill:#4d4d4d;stroke-width:0.27162841"
           d="m 95.411876,150.88545 c -3.574157,-1.16363 -5.245864,6.27032 -0.993575,5.08383 -6.864129,4.16915 -4.342506,-8.57226 0.993575,-5.08383 z"
           id="path6663" />
        <path
           style="font-style:italic;fill:#4d4d4d;stroke-width:0.27162841"
           d="m 101.4068,153.20915 c 2.34252,5.03248 -8.669746,3.19174 -3.57308,-0.20956 5.56299,0.51706 -3.642234,-3.14588 1.874166,-2.41554 1.345574,0.002 2.312044,1.36564 1.698914,2.6251 z m -1.05574,0.4032 c -5.708476,-1.83601 -1.529959,5.70172 0,0 z"
           id="path6665" />
        <path
           style="font-style:italic;fill:#4d4d4d;stroke-width:0.27162841"
           d="m 108.2877,153.01285 c -0.11272,4.4145 -2.29051,1.28769 -1.16185,-1.40058 -3.37862,0.24233 -4.43791,7.58245 -3.96563,0.61732 0.65466,-2.54652 5.5006,-2.09512 5.12748,0.78326 z"
           id="path6667" />
        <path
           style="font-style:italic;fill:#4d4d4d;stroke-width:0.27162841"
           d="m -23.032978,161.92566 c 3.0134,-0.09 -1.631933,2.76648 0,0 z m -0.790481,0 c -4.136295,1.56716 4.916396,5.0653 -0.214138,7.26636 0.825031,-2.50332 -1.221019,-7.08373 -2.35457,-2.387 -1.899493,6.80838 -2.490509,-3.87727 0.631508,-4.68631 l 0.89443,-0.24852 z"
           id="path6669" />
        <path
           style="font-style:italic;fill:#4d4d4d;stroke-width:0.27162841"
           d="m -15.918648,166.59428 c -0.11271,4.4145 -2.290517,1.28768 -1.161848,-1.40059 -3.378617,0.24232 -4.437908,7.58244 -3.96563,0.61732 0.654669,-2.54652 5.500608,-2.09511 5.127478,0.78327 z"
           id="path6671" />
        <path
           style="font-style:italic;fill:#4d4d4d;stroke-width:0.27162841"
           d="m -10.533826,169.28934 c -6.902213,2.63671 -1.505752,-7.0792 1.4452808,-6.60846 1.3557133,-2.94484 -0.1560313,9.8338 -1.4452808,6.60846 z m -3.029293,-1.40059 c 3.5962947,6.06162 4.0059258,-7.39478 0.546263,-1.25235 -0.208655,0.40559 -0.367289,0.83349 -0.546263,1.25235 z"
           id="path6673" />
        <path
           style="font-style:italic;fill:#4d4d4d;stroke-width:0.27162841"
           d="m -2.7298142,161.92566 c 2.99947203,-0.0819 -1.6345101,2.76097 0,0 z m -0.4456404,2.31309 c 2.74325754,2.61471 -2.5078287,8.19334 -0.3973123,2.03192 0.1324375,-0.67731 0.2648749,-1.35461 0.3973123,-2.03192 z"
           id="path6675" />
        <path
           style="font-style:italic;fill:#4d4d4d;stroke-width:0.27162841"
           d="m 2.8884381,164.23875 c -4.4093207,0.75164 -1.5826174,5.51657 -1.7384893,5.58644 -3.4508259,-0.15272 -2.2979911,-10.35842 1.7384893,-5.58644 z"
           id="path6677" />
        <path
           style="font-style:italic;fill:#4d4d4d;stroke-width:0.27162841"
           d="m 11.4511,164.41382 c -5.5080588,-0.10016 2.479074,7.45172 -4.2070347,5.44754 -0.2471248,-1.7438 4.0595027,0.24605 0.8456048,-2.82375 -1.7665094,-2.75261 1.3338011,-3.46056 3.3614299,-2.62379 z"
           id="path6679" />
        <path
           style="font-style:italic;fill:#4d4d4d;stroke-width:0.27162841"
           d="m 14.443258,170.33447 c -7.462175,-2.0966 5.662397,-9.74423 2.979927,-2.19318 -0.363429,1.30499 -1.694026,2.09459 -2.979927,2.19318 z m -1.246732,-2.4351 c 3.687243,6.19584 4.196564,-7.513 0.575702,-1.27672 -0.219068,0.41305 -0.387367,0.84948 -0.575702,1.27672 z"
           id="path6681" />
        <path
           style="font-style:italic;fill:#4d4d4d;stroke-width:0.27162841"
           d="m 28.083036,166.59428 c -0.09973,4.40001 -2.300008,1.31048 -1.167158,-1.38467 -3.288098,0.38784 -4.141376,7.41956 -3.929028,0.7672 -1.586847,-2.93932 -4.682828,7.66198 -3.925164,1.11841 -0.138519,-3.4582 9.707322,-4.75509 9.02135,-0.50094 z"
           id="path6683" />
        <path
           style="font-style:italic;fill:#4d4d4d;stroke-width:0.27162841"
           d="m 34.141622,166.67916 c -1.538445,-4.50352 -4.86814,2.1883 0,0 z m 0.848839,0.76395 c -3.346779,-1.98951 -4.968505,2.85076 -0.785173,2.46694 -8.244805,4.64299 -2.456051,-12.05534 0.659565,-3.20149 z"
           id="path6685" />
        <path
           style="font-style:italic;fill:#4d4d4d;stroke-width:0.27162841"
           d="m 36.523679,164.23875 c 1.167404,5.01083 2.260784,2.21515 4.156347,0.31913 0.93453,2.75933 0.983308,5.23727 2.378797,1.00212 2.281808,-1.93443 -2.293649,8.4984 -2.67587,2.50546 0.658986,-6.17622 -3.506419,6.54383 -3.639563,0.1285 -0.105455,-1.3167 -0.08679,-2.64031 -0.219711,-3.95521 z"
           id="path6687" />
        <path
           style="font-style:italic;fill:#4d4d4d;stroke-width:0.27162841"
           d="m 50.545435,166.59428 c -0.112711,4.4145 -2.290517,1.28768 -1.161848,-1.40059 -3.327278,0.13346 -4.46757,7.60468 -3.932718,0.70697 0.762561,-4.61101 1.922079,-1.77971 1.897664,-1.31654 1.378198,-1.1825 4.161137,0.008 3.196902,2.01016 z"
           id="path6689" />
        <path
           style="font-style:italic;fill:#4d4d4d;stroke-width:0.27162841"
           d="m 56.61463,166.67916 c -1.538443,-4.50352 -4.86814,2.1883 0,0 z m 0.848839,0.76395 c -3.34678,-1.98951 -4.968506,2.85076 -0.785173,2.46694 -8.244805,4.64299 -2.456053,-12.05534 0.659565,-3.20149 z"
           id="path6691" />
        <path
           style="font-style:italic;fill:#4d4d4d;stroke-width:0.27162841"
           d="m 62.917261,165.14064 c -3.131155,0.22352 -4.340443,7.47178 -4.006163,1.02308 0.06966,-1.86634 3.147216,-2.92721 4.006163,-1.02308 z"
           id="path6693" />
        <path
           style="font-style:italic;fill:#4d4d4d;stroke-width:0.27162841"
           d="m 67.776861,166.67916 c -1.538445,-4.50352 -4.868139,2.1883 0,0 z m 0.848839,0.76395 c -3.346779,-1.98951 -4.968507,2.85076 -0.785174,2.46694 -8.244804,4.64299 -2.456053,-12.05534 0.659566,-3.20149 z"
           id="path6695" />
        <path
           style="font-style:italic;fill:#4d4d4d;stroke-width:0.27162841"
           d="m 71.63908,162.25989 c 3.054911,2.07641 -2.508112,7.56755 -0.352977,1.82048 0.117659,-0.60683 0.235318,-1.21365 0.352977,-1.82048 z m -1.273258,6.5732 c 3.2264,0.095 -1.707817,2.59802 0,0 z"
           id="path6697" />
      </g>
    </g>
  </g>
</svg>
